<?xml version="1.0" encoding="utf-8"?><!-- Uploaded to: SVG Repo, www.svgrepo.com, Generator: SVG Repo Mixer Tools -->
<svg fill="#000000" width="800px" height="800px" viewBox="0 0 24 24" id="caravan-2" data-name="Flat Line" xmlns="http://www.w3.org/2000/svg" class="icon flat-line"><path id="secondary" d="M5.5,12v4h9a2,2,0,0,1,4,0h2a1,1,0,0,0,1-1V7a1,1,0,0,0-1-1H10.38A4,4,0,0,0,6.59,8.74Z" style="fill: rgb(44, 169, 188); stroke-width: 2;"></path><path id="primary" d="M5.5,12v4h9a2,2,0,0,1,4,0h2a1,1,0,0,0,1-1V7a1,1,0,0,0-1-1H10.38A4,4,0,0,0,6.59,8.74Zm0,4h-3m14-2a2,2,0,1,1-2,2A2,2,0,0,1,16.5,14Zm-6-4h2" style="fill: none; stroke: rgb(0, 0, 0); stroke-linecap: round; stroke-linejoin: round; stroke-width: 2;"></path></svg>